<svg version="1.1" id="Layer_1" xmlns="http://www.w3.org/2000/svg" xmlns:xlink="http://www.w3.org/1999/xlink" x="0px" y="0px"
	 width="100%" viewBox="0 0 448 288" enable-background="new 0 0 448 288" xml:space="preserve">
<path fill="#000000" opacity="1.000000" stroke="none" 
	d="
M184.024475,169.379211 
	C173.008026,173.031326 165.938766,168.839813 163.519928,157.910675 
	C162.248322,152.165161 162.898224,146.686249 164.896713,141.325531 
	C166.993958,135.699921 171.515564,133.173157 177.244308,132.852402 
	C182.961670,132.532272 187.866730,135.892776 190.138107,141.253601 
	C194.453766,151.439301 191.882477,163.915726 184.024475,169.379211 
M168.598618,156.696198 
	C168.779510,157.335556 168.999664,157.966705 169.134995,158.615570 
	C170.109177,163.286270 172.709915,165.973053 177.738647,165.851578 
	C182.788940,165.729599 185.051758,162.786301 186.023361,158.179611 
	C187.004410,153.528122 186.914124,148.968536 185.713013,144.391296 
	C184.595078,140.130997 181.801529,137.812439 177.471115,137.826141 
	C173.110306,137.839935 170.492340,140.308868 169.295410,144.505981 
	C168.225540,148.257568 168.204224,152.039474 168.598618,156.696198 
z"/>
<path fill="#000000" opacity="1.000000" stroke="none" 
	d="
M293.630280,169.708740 
	C285.056885,164.744202 284.280029,156.790558 284.985352,148.636719 
	C285.561310,141.978470 287.749634,135.883041 295.210938,133.594635 
	C302.275024,131.428040 309.304535,134.467606 312.013733,141.335144 
	C314.526306,147.704300 314.765137,154.314621 312.598358,160.857803 
	C309.820801,169.245499 302.920349,172.527832 293.630280,169.708740 
M290.334045,154.197845 
	C290.603088,155.826141 290.796661,157.471298 291.155640,159.079498 
	C292.153229,163.548386 294.781555,166.020676 299.568298,165.879547 
	C304.272278,165.740845 306.775208,163.288803 307.808716,158.781143 
	C308.871948,154.143707 308.872314,149.613785 307.763702,144.991150 
	C306.750793,140.767609 304.493408,138.237579 299.952911,138.022522 
	C295.250763,137.799805 292.533417,140.015839 291.171356,144.438141 
	C290.265747,147.378601 290.354156,150.334534 290.334045,154.197845 
z"/>
<path fill="#000000" opacity="1.000000" stroke="none" 
	d="
M320.658234,152.922485 
	C320.683655,149.645889 320.648834,146.866440 321.480713,144.088547 
	C323.589264,137.047729 328.512146,132.800232 334.880157,132.823944 
	C341.590363,132.848938 346.516113,136.676453 348.452393,143.809097 
	C349.997314,149.500061 350.008911,155.314804 348.160583,160.953598 
	C346.012024,167.508316 341.131500,171.082626 334.894226,171.054169 
	C328.669708,171.025772 323.591736,166.858917 321.628296,160.242386 
	C320.961487,157.995407 320.546234,155.733185 320.658234,152.922485 
M329.441528,164.177872 
	C335.812592,167.406525 341.189484,166.061417 342.930359,160.322540 
	C344.641815,154.680649 344.544006,148.808258 342.809570,143.125793 
	C341.692993,139.467606 338.790527,138.034088 335.102570,138.000458 
	C331.439850,137.967056 328.306366,139.159760 327.349182,142.939011 
	C325.574066,149.947769 324.779663,157.007126 329.441528,164.177872 
z"/>
<path fill="#000000" opacity="1.000000" stroke="none" 
	d="
M148.897400,138.146042 
	C148.264786,138.147552 148.097992,138.143433 147.931473,138.148590 
	C139.515625,138.409180 138.971954,135.980759 139.102707,147.547150 
	C145.721680,144.356003 151.602203,145.093887 154.900146,149.529434 
	C158.367294,154.192566 158.165375,162.434402 154.475708,166.853653 
	C150.871124,171.171005 143.402298,172.411621 137.934692,169.498993 
	C136.785095,168.886612 135.635666,168.051086 134.845184,167.038193 
	C133.567108,165.400528 131.500610,163.397598 133.604538,161.386841 
	C136.131516,158.971771 137.129837,161.797379 138.458313,163.418411 
	C140.829819,166.312225 146.509613,166.872467 149.355057,164.629990 
	C152.164291,162.416046 152.764679,155.663193 150.421066,152.640152 
	C148.147552,149.707535 143.392548,149.272415 140.090927,151.759018 
	C138.670319,152.828934 137.542725,154.814575 135.426041,153.881439 
	C133.065369,152.840759 133.784348,150.466995 133.776642,148.565048 
	C133.715607,133.510132 133.735031,133.510056 148.770920,133.616150 
	C148.937576,133.617325 149.113831,133.581848 149.269455,133.623627 
	C151.270187,134.160965 154.817566,132.324661 154.893021,135.756378 
	C154.968689,139.198242 151.409073,137.679230 148.897400,138.146042 
z"/>
<path fill="#000000" opacity="1.000000" stroke="none" 
	d="
M218.481293,153.679535 
	C220.107239,151.274414 218.817627,149.612106 217.782822,147.910629 
	C215.123489,143.538040 212.462967,139.166199 209.188248,133.783752 
	C219.411438,133.352051 218.309402,143.815475 223.966324,146.697876 
	C229.272003,143.671173 228.517258,134.165482 237.425659,133.588257 
	C236.483948,138.547043 233.832245,141.855576 231.486771,145.056152 
	C228.104355,149.671722 228.168976,153.493179 231.627106,157.971359 
	C234.222748,161.332626 236.079071,165.264816 238.306168,169.012863 
	C233.634735,170.810287 233.686813,170.777649 229.986008,164.873550 
	C228.082672,161.837036 226.617737,158.465820 224.051773,155.913879 
	C218.149033,159.606232 218.787689,169.497757 209.282501,169.252167 
	C212.292862,164.163849 215.303223,159.075531 218.481293,153.679535 
z"/>
<path fill="#000000" opacity="1.000000" stroke="none" 
	d="
M262.621704,138.399460 
	C260.393860,138.887955 259.702606,141.921295 257.237000,140.879105 
	C256.285339,140.476868 255.660904,139.456314 255.948517,138.411545 
	C256.581024,136.113876 258.501831,135.018311 260.511261,134.138138 
	C269.383392,130.251968 277.978943,134.928162 277.347107,143.221481 
	C277.125580,146.129684 275.552277,148.120255 273.444519,149.744522 
	C273.585266,151.343567 275.019775,151.473236 275.812439,152.225235 
	C279.355255,155.586288 280.143768,159.549164 278.465546,164.049210 
	C276.460022,169.426849 271.859833,170.867126 266.869415,171.020828 
	C262.030487,171.169830 257.589966,169.788666 255.174911,164.981537 
	C254.467285,163.573044 253.345459,161.983200 255.491196,160.673706 
	C257.585052,159.395859 258.463318,160.807114 259.373749,162.305176 
	C262.089661,166.774017 266.297974,166.533218 270.395996,165.293274 
	C273.347229,164.400330 274.086731,161.607986 273.636749,158.738312 
	C272.891937,153.988281 269.187714,153.554840 265.388641,153.315674 
	C263.941864,153.224609 262.130707,153.459625 261.950165,151.345367 
	C261.738800,148.870071 263.703064,149.021530 265.344299,148.788086 
	C270.329254,148.079010 273.195129,145.189957 272.406311,141.733124 
	C271.614532,138.263153 268.043304,136.958206 262.621704,138.399460 
z"/>
<path fill="#000000" opacity="1.000000" stroke="none" 
	d="
M122.951752,163.050293 
	C122.654457,163.521194 122.618675,163.686630 122.550819,163.837646 
	C121.629730,165.887848 123.754257,169.669495 120.123337,169.961685 
	C116.382927,170.262680 117.968208,166.637085 117.583710,164.655945 
	C117.154945,162.446716 115.669571,162.148270 113.926765,162.107819 
	C110.762634,162.034378 107.595802,162.067200 104.432365,161.976578 
	C100.554543,161.865509 99.634598,159.473190 101.381966,156.637787 
	C105.835739,149.410812 110.685226,142.427551 115.383774,135.351669 
	C116.598007,133.523071 118.438255,133.509583 120.302078,133.802658 
	C122.698563,134.179489 122.276077,136.164505 122.296051,137.732498 
	C122.363968,143.063675 122.334129,148.396210 122.326370,153.728195 
	C122.323555,155.663696 122.412292,157.470291 125.008583,157.666611 
	C126.295151,157.763901 127.907532,157.654327 128.062119,159.494110 
	C128.237213,161.577927 126.528671,161.729630 125.064240,162.081970 
	C124.426575,162.235413 123.819397,162.515533 122.951752,163.050293 
M110.187935,157.649231 
	C112.545601,156.925903 116.472099,159.588501 117.063522,155.243256 
	C117.647697,150.951355 118.153687,146.502792 116.877960,141.190704 
	C113.750046,146.171890 111.019867,150.454300 108.367180,154.784195 
	C107.577759,156.072723 107.373032,157.349655 110.187935,157.649231 
z"/>
</svg>